<svg width="80" height="16" viewBox="0 0 80 16" fill="none" xmlns="http://www.w3.org/2000/svg">
<path d="M8 0.809018L9.55835 5.60512L9.61448 5.77786H9.79611H14.839L10.7592 8.74202L10.6123 8.84878L10.6684 9.02153L12.2268 13.8176L8.14695 10.8535L8 10.7467L7.85305 10.8535L3.77325 13.8176L5.33159 9.02153L5.38772 8.84878L5.24078 8.74202L1.16097 5.77786H6.20389H6.38552L6.44165 5.60512L8 0.809018Z" fill="#020617" stroke="#020617" stroke-width="0.5"/>
<path d="M24 0.809018L25.5583 5.60512L25.6145 5.77786H25.7961H30.839L26.7592 8.74202L26.6123 8.84878L26.6684 9.02153L28.2268 13.8176L24.1469 10.8535L24 10.7467L23.8531 10.8535L19.7732 13.8176L21.3316 9.02153L21.3877 8.84878L21.2408 8.74202L17.161 5.77786H22.2039H22.3855L22.4417 5.60512L24 0.809018Z" fill="#020617" stroke="#020617" stroke-width="0.5"/>
<path d="M40 0.809018L41.5583 5.60512L41.6145 5.77786H41.7961H46.839L42.7592 8.74202L42.6123 8.84878L42.6684 9.02153L44.2268 13.8176L40.1469 10.8535L40 10.7467L39.8531 10.8535L35.7732 13.8176L37.3316 9.02153L37.3877 8.84878L37.2408 8.74202L33.161 5.77786H38.2039H38.3855L38.4417 5.60512L40 0.809018Z" fill="#020617" stroke="#020617" stroke-width="0.5"/>
<path d="M56 0.809018L57.5583 5.60512L57.6145 5.77786H57.7961H62.839L58.7592 8.74202L58.6123 8.84878L58.6684 9.02153L60.2268 13.8176L56.1469 10.8535L56 10.7467L55.8531 10.8535L51.7732 13.8176L53.3316 9.02153L53.3877 8.84878L53.2408 8.74202L49.161 5.77786H54.2039H54.3855L54.4417 5.60512L56 0.809018Z" fill="#020617" stroke="#020617" stroke-width="0.5"/>
<path d="M72 0.809018L73.5583 5.60512L73.6145 5.77786H73.7961H78.839L74.7592 8.74202L74.6123 8.84878L74.6684 9.02153L76.2268 13.8176L72.1469 10.8535L72 10.7467L71.8531 10.8535L67.7732 13.8176L69.3316 9.02153L69.3877 8.84878L69.2408 8.74202L65.161 5.77786H70.2039H70.3855L70.4417 5.60512L72 0.809018Z" fill="#F8FAFC" stroke="#020617" stroke-width="0.5"/>
</svg>
