<svg width="28" height="28" viewBox="0 0 28 28" fill="none" xmlns="http://www.w3.org/2000/svg">
<g clip-path="url(#clip0_62_296)">
<path d="M14 26C20.6274 26 26 20.6274 26 14C26 7.37258 20.6274 2 14 2C7.37258 2 2 7.37258 2 14C2 20.6274 7.37258 26 14 26Z" fill="#D80027"/>
<path d="M8.56719 9.3031L9.60312 12.4906H12.9547L10.2453 14.464L11.2812 17.6515L8.56719 15.6828L5.85313 17.6515L6.89375 14.464L4.17969 12.4906H7.53125L8.56719 9.3031Z" fill="#FFDA44"/>
<path d="M16.2266 20.5859L15.4344 19.6109L14.2625 20.0656L14.9422 19.0109L14.15 18.0312L15.3641 18.3547L16.0485 17.3L16.1141 18.5562L17.3328 18.8797L16.1563 19.3297L16.2266 20.5859Z" fill="#FFDA44"/>
<path d="M17.8016 17.7266L18.1766 16.5266L17.15 15.8L18.4063 15.7812L18.7766 14.5812L19.1844 15.7719L20.4406 15.7578L19.4328 16.5078L19.836 17.6984L18.8094 16.9719L17.8016 17.7266Z" fill="#FFDA44"/>
<path d="M19.925 10.8078L19.3719 11.9375L20.2719 12.8141L19.0297 12.6359L18.4765 13.7609L18.2609 12.5234L17.014 12.3453L18.1297 11.7594L17.914 10.5172L18.814 11.3937L19.925 10.8078Z" fill="#FFDA44"/>
<path d="M16.2594 7.38593L16.1657 8.63749L17.3329 9.11093L16.1094 9.41093L16.0204 10.6672L15.3594 9.59843L14.136 9.89843L14.9469 8.93749L14.2813 7.87343L15.4485 8.34686L16.2594 7.38593Z" fill="#FFDA44"/>
</g>
<defs>
<clipPath id="clip0_62_296">
<rect width="24" height="24" fill="white" transform="translate(2 2)"/>
</clipPath>
</defs>
</svg>
