<svg width="24" height="24" viewBox="0 0 24 24" fill="none" xmlns="http://www.w3.org/2000/svg">
<path d="M15.3333 8.6666L12.4309 3.73257C12.2376 3.40392 11.7623 3.40392 11.569 3.73257L8.66663 8.6666M14.2222 19.9999H21.1258C21.5125 19.9999 21.7528 19.5797 21.5567 19.2464L18.25 13.6249M7.55552 19.9999H2.87417C2.48746 19.9999 2.24714 19.5797 2.4432 19.2464L5.74996 13.6249M15 16.9999L12.3535 19.6464C12.1583 19.8416 12.1583 20.1582 12.3535 20.3535L15 22.9999M6.99994 15.9999L6.59304 12.7441C6.5488 12.3901 6.15863 12.195 5.84884 12.372L2.99985 13.9999M12 8.99992L15.6151 9.96859C15.8818 10.0401 16.156 9.88177 16.2274 9.61504L17.1961 5.99992" stroke="black" stroke-width="2" stroke-linecap="round"/>
</svg>
